<svg xmlns="http://www.w3.org/2000/svg" xmlns:xlink="http://www.w3.org/1999/xlink" width="2476.6" height="1385.15" viewBox="0 0 2476.6 1385.15"><defs><style>.cls-1{isolation:isolate;}.cls-2,.cls-3{stroke-miterlimit:10;}.cls-2{fill:url(#linear-gradient);stroke:url(#linear-gradient-2);}.cls-3{fill:url(#linear-gradient-3);stroke:url(#linear-gradient-4);}.cls-14,.cls-19,.cls-4,.cls-5{fill:#fff;}.cls-4{opacity:0.06;}.cls-4,.cls-5{mix-blend-mode:overlay;}.cls-5{opacity:0.1;}.cls-6{fill:#e6e6e6;}.cls-7{fill:#ccc;}.cls-8,.cls-9{fill:#999;}.cls-11,.cls-12,.cls-14,.cls-15,.cls-16,.cls-8,.cls-9{fill-rule:evenodd;}.cls-8{opacity:0.29;}.cls-9{opacity:0.17;}.cls-10{fill:#1a0e4c;}.cls-11{fill:#180d45;}.cls-12{fill:#160c40;}.cls-13{opacity:0.82;}.cls-15{fill:#ad19ab;}.cls-16{fill:#306df9;}.cls-17{opacity:0.38;}.cls-18{opacity:0.84;}</style><linearGradient id="linear-gradient" x1="1238.3" y1="1385.93" x2="1238.3" y2="-6.92" gradientUnits="userSpaceOnUse"><stop offset="0.31" stop-color="#1c0e57"/><stop offset="0.54" stop-color="#130a4e"/><stop offset="0.54" stop-color="#130a4e"/><stop offset="0.7" stop-color="#0a0637"/><stop offset="0.86" stop-color="#040328"/><stop offset="0.99" stop-color="#020222"/></linearGradient><linearGradient id="linear-gradient-2" x1="-0.29" y1="689.5" x2="2476.89" y2="689.5" gradientUnits="userSpaceOnUse"><stop offset="0" stop-color="#1e1850"/><stop offset="1"/></linearGradient><linearGradient id="linear-gradient-3" x1="1236.87" y1="1385.38" x2="1236.87" y2="-7.47" xlink:href="#linear-gradient"/><linearGradient id="linear-gradient-4" x1="-1.72" y1="688.96" x2="2475.46" y2="688.96" xlink:href="#linear-gradient-2"/></defs><title>mattyusbackground</title><g class="cls-1"><g id="Layer_2" data-name="Layer 2"><rect class="cls-2" x="0.21" y="-6.92" width="2476.18" height="1392.85"/><rect class="cls-3" x="-1.22" y="-7.47" width="2476.18" height="1392.85"/></g><g id="Layer_8" data-name="Layer 8"><circle class="cls-4" cx="1963.24" cy="977.17" r="357.59"/><circle class="cls-5" cx="1963.92" cy="987.89" r="313.74"/><circle class="cls-5" cx="1967.08" cy="987.89" r="266.37"/><circle class="cls-6" cx="1965.25" cy="987.89" r="218.11"/><g id="Layer_9" data-name="Layer 9"><circle class="cls-7" cx="1867.31" cy="846.74" r="30.45"/><path class="cls-8" d="M1897.76,846.73a30.35,30.35,0,0,1-2.25,11.54c1.67-8.5-1-23.48-9.17-31.13s-19-9.48-27.06-10.16a31.41,31.41,0,0,1,7.75-1A30.73,30.73,0,0,1,1897.76,846.73Z"/><circle class="cls-7" cx="1986.78" cy="826.4" r="23.54"/><path class="cls-8" d="M2010.32,826.4a23.63,23.63,0,0,1-1.74,8.92c1.29-6.58-.76-18.16-7.09-24.08s-14.71-7.32-20.92-7.85a24.09,24.09,0,0,1,6-.75A23.76,23.76,0,0,1,2010.32,826.4Z"/><circle class="cls-7" cx="1956.27" cy="924.4" r="19.13"/><path class="cls-9" d="M1975.4,924.4a19.23,19.23,0,0,1-1.41,7.25c1-5.34-.62-14.76-5.77-19.56s-12-6-17-6.38a19.32,19.32,0,0,1,24.17,18.69Z"/><circle class="cls-7" cx="2012.59" cy="883.3" r="12.88"/><path class="cls-8" d="M2025.48,883.3a13,13,0,0,1-1,4.88c.7-3.6-.42-9.94-3.89-13.18s-8.05-4-11.45-4.3a13.64,13.64,0,0,1,3.28-.41A13,13,0,0,1,2025.48,883.3Z"/><circle class="cls-7" cx="2063.91" cy="852.15" r="17.61"/><path class="cls-8" d="M2081.53,852.15a17.62,17.62,0,0,1-1.3,6.67c1-4.92-.57-13.58-5.31-18s-11-5.48-15.65-5.87a17.79,17.79,0,0,1,22.26,17.21Z"/><circle class="cls-7" cx="1931.9" cy="812.84" r="7.31"/><path class="cls-8" d="M1939.21,812.83a7.36,7.36,0,0,1-.54,2.78c.4-2.05-.24-5.64-2.2-7.48a10.5,10.5,0,0,0-6.5-2.44,7.52,7.52,0,0,1,1.86-.24A7.39,7.39,0,0,1,1939.21,812.83Z"/><circle class="cls-7" cx="1836.87" cy="912.66" r="7.31"/><path class="cls-8" d="M1844.18,912.66a7.31,7.31,0,0,1-.54,2.77c.4-2-.23-5.64-2.2-7.48a10.5,10.5,0,0,0-6.5-2.44,7.58,7.58,0,0,1,1.86-.23A7.37,7.37,0,0,1,1844.18,912.66Z"/></g></g><g id="Layer_1" data-name="Layer 1"><path class="cls-10" d="M-60.15,704l187,170,125-112,130,146,183-126,52,52,20-19,140,136,204-139,121,107,89-80,92.48,108.43c-.45,1.58,161.42-155.08,161.52-155.43l137,132,67-72,155,130,130-111,150,118,160-149,91,93,162-84,5,92,158.65,470.91-1896,34.78-856.52-11"/><path class="cls-11" d="M-26.17,1013.78,103.77,726.36,266.65,849,338,792.26l278.18,258.13L819.36,763l226.94,278.27,36.61-65.91,49.41,95.2L1383.05,764.8l65.89,60.42,36.6-51.27,140.92,214.2,131.77-157.44,119,208.7,263.54-206.87,144.58,241.65,203.15-263.62,42.09,662.72H-192.72"/><path class="cls-12" d="M2140.74,834.37l-89.68,250.81,20.13,203.21-194-249"/><path class="cls-12" d="M1758.23,830.71l-16.47,113.5,1.83,104.35-119-60.41"/><path class="cls-12" d="M1485.54,775.79l3.66,100.69-40.26-49.43"/><path class="cls-12" d="M2464.68,847.18l-42.1,324-60.39,7.33-78.7-106.19"/><path class="cls-12" d="M1383.05,768.46l-16.47,261.8-45.73,7.74,1,145-116.32,15.68-75-130"/><path class="cls-12" d="M1081.07,977.17l11,113.5-45.76-47.6"/><path class="cls-12" d="M817.53,766.63l-31.11,338.69-22,139.13L612.55,1050.39"/><path class="cls-12" d="M341.69,797.75l-14.64,271L272.14,957l-3.66-108L338,792.26"/><path class="cls-12" d="M103.77,731.85l32.94,276.44,60.4,135.47L-50,1248.11l-58.57-252.64"/></g><g id="Layer_4" data-name="Layer 4"><g id="Small_stars" data-name="Small stars" class="cls-13"><path class="cls-14" d="M559.76,115.81a1.83,1.83,0,1,1-1.84,1.83A1.82,1.82,0,0,1,559.76,115.81Z"/><path class="cls-14" d="M825.13,707.13A1.84,1.84,0,1,1,823.3,709,1.83,1.83,0,0,1,825.13,707.13Z"/><path class="cls-15" d="M1174.69,687a1.83,1.83,0,1,1-1.83,1.83A1.83,1.83,0,0,1,1174.69,687Z"/><path class="cls-15" d="M2082.45,73.7a1.83,1.83,0,1,1-1.83,1.83A1.83,1.83,0,0,1,2082.45,73.7Z"/><path class="cls-16" d="M2402.73,531.38a1.84,1.84,0,1,1-1.83,1.84A1.83,1.83,0,0,1,2402.73,531.38Z"/><path class="cls-16" d="M1701.78,322.68a1.83,1.83,0,1,1-1.83,1.83A1.83,1.83,0,0,1,1701.78,322.68Z"/><path class="cls-16" d="M2170.3,238.47a1.83,1.83,0,1,1-1.83,1.83A1.83,1.83,0,0,1,2170.3,238.47Z"/><path class="cls-15" d="M1981.79,452.66a1.83,1.83,0,1,1-1.83,1.83A1.83,1.83,0,0,1,1981.79,452.66Z"/><path class="cls-14" d="M1698.12,500.26a1.83,1.83,0,1,1-1.84,1.83A1.83,1.83,0,0,1,1698.12,500.26Z"/><path class="cls-14" d="M1654.19,81a1.83,1.83,0,1,1-1.83,1.83A1.83,1.83,0,0,1,1654.19,81Z"/><path class="cls-14" d="M1262.54,117.64a1.83,1.83,0,1,1-1.83,1.83A1.83,1.83,0,0,1,1262.54,117.64Z"/><path class="cls-15" d="M1290,425.2a1.83,1.83,0,1,1-1.83,1.83A1.83,1.83,0,0,1,1290,425.2Z"/><path class="cls-15" d="M724.47,503.92a1.83,1.83,0,1,1-1.83,1.83A1.83,1.83,0,0,1,724.47,503.92Z"/><path class="cls-14" d="M277.91,655.87a1.84,1.84,0,1,1-1.83,1.83A1.83,1.83,0,0,1,277.91,655.87Z"/><path class="cls-16" d="M347.46,353.8a1.84,1.84,0,1,1-1.83,1.83A1.83,1.83,0,0,1,347.46,353.8Z"/><path class="cls-15" d="M129.67,194.53a1.83,1.83,0,1,1-1.83,1.83A1.83,1.83,0,0,1,129.67,194.53Z"/><path class="cls-16" d="M221.18,121.3a1.83,1.83,0,1,1-1.83,1.83A1.83,1.83,0,0,1,221.18,121.3Z"/><path class="cls-14" d="M1948.85,233a1.83,1.83,0,1,1-1.83,1.83A1.83,1.83,0,0,1,1948.85,233Z"/><path class="cls-14" d="M823.3,234.81a1.83,1.83,0,1,1-1.83,1.83A1.83,1.83,0,0,1,823.3,234.81Z"/></g><g id="Medium_stars" data-name="Medium stars" class="cls-17"><path class="cls-16" d="M936.77,298.88a1.83,1.83,0,1,1-1.83,1.83A1.83,1.83,0,0,1,936.77,298.88Z"/><path class="cls-14" d="M2342,177.54a3.26,3.26,0,1,1-3.29,3.26A3.27,3.27,0,0,1,2342,177.54Z"/><path class="cls-14" d="M154.92,75a3.26,3.26,0,1,1-3.29,3.26A3.28,3.28,0,0,1,154.92,75Z"/><path class="cls-14" d="M154.92,75a3.26,3.26,0,1,1-3.29,3.26A3.28,3.28,0,0,1,154.92,75Z"/><path class="cls-14" d="M572.19,679.16a3.26,3.26,0,1,1-3.28,3.26A3.27,3.27,0,0,1,572.19,679.16Z"/><path class="cls-14" d="M962.34,151.18a3.27,3.27,0,1,1-3.29,3.27A3.28,3.28,0,0,1,962.34,151.18Z"/><path class="cls-14" d="M1574.61,683.22a3.26,3.26,0,1,1-3.29,3.26A3.27,3.27,0,0,1,1574.61,683.22Z"/><path class="cls-14" d="M2265.09,701.13a3.26,3.26,0,1,1-3.28,3.26A3.27,3.27,0,0,1,2265.09,701.13Z"/><path class="cls-14" d="M1829.52,184.86a3.26,3.26,0,1,1-3.29,3.26A3.27,3.27,0,0,1,1829.52,184.86Z"/><path class="cls-14" d="M2208.36,428.35a3.26,3.26,0,1,1-3.29,3.26A3.28,3.28,0,0,1,2208.36,428.35Z"/><path class="cls-14" d="M1841.91,579.77a3.26,3.26,0,1,1-3.29,3.26A3.27,3.27,0,0,1,1841.91,579.77Z"/><path class="cls-14" d="M1452.5,357a3.26,3.26,0,1,1-3.29,3.26A3.27,3.27,0,0,1,1452.5,357Z"/><path class="cls-14" d="M1007.77,560.16a3.26,3.26,0,1,1-3.29,3.26A3.27,3.27,0,0,1,1007.77,560.16Z"/><path class="cls-14" d="M564.87,360.61a3.26,3.26,0,1,1-3.29,3.26A3.27,3.27,0,0,1,564.87,360.61Z"/><path class="cls-14" d="M131.13,503.41a3.26,3.26,0,1,1-3.29,3.26A3.27,3.27,0,0,1,131.13,503.41Z"/></g><g id="Large_stars" data-name="Large stars" class="cls-18"><path class="cls-19" d="M755.11,353.41s-8,1-8,8.33c0-.09,0-.18,0-.27-.24-7-7.92-8-7.92-8,7.2.13,7.8-6.3,7.85-7.59l.07,15.25L747,346.05C747.06,347.23,747.75,353.54,755.11,353.41Z"/><path class="cls-19" d="M1176.9,249.67s-8,1-8,8.33v-.27c-.24-7-7.93-8-7.93-8,7.2.13,7.81-6.3,7.85-7.59l.08,15.25-.07-15.07C1168.86,243.49,1169.55,249.8,1176.9,249.67Z"/><path class="cls-19" d="M1062.26,455.93s-8,1-8,8.33V464c-.25-7-7.93-8-7.93-8,7.2.13,7.8-6.3,7.85-7.59l.08,15.25-.07-15.06C1054.22,449.75,1054.91,456.06,1062.26,455.93Z"/><path class="cls-19" d="M1445.55,542.59s-8,1-8,8.33v-.27c-.24-7-7.93-8-7.93-8,7.2.14,7.81-6.29,7.85-7.58l.08,15.25-.07-15.07C1437.51,536.41,1438.2,542.72,1445.55,542.59Z"/><path class="cls-19" d="M1527.53,197.8s-8,1-8,8.33c0-.09,0-.18,0-.27-.24-7-7.92-8-7.92-8,7.2.13,7.8-6.3,7.85-7.59l.07,15.25-.07-15.07C1519.48,191.62,1520.17,197.93,1527.53,197.8Z"/><path class="cls-19" d="M1840.78,366.74s-8,1-8,8.33v-.27c-.24-7-7.93-8-7.93-8,7.2.13,7.81-6.3,7.85-7.59l.08,15.25-.07-15.07C1832.74,360.56,1833.43,366.87,1840.78,366.74Z"/><path class="cls-19" d="M2122.1,597.51s-8,1-8,8.33v-.27c-.24-7-7.93-8-7.93-8,7.2.13,7.81-6.3,7.85-7.59l.08,15.25-.07-15.07C2114.06,591.33,2114.75,597.64,2122.1,597.51Z"/><path class="cls-19" d="M2346.65,310.09s-8,1-8,8.32v-.26c-.25-7-7.93-8-7.93-8,7.2.14,7.8-6.3,7.85-7.59l.08,15.26-.07-15.07C2338.61,303.9,2339.3,310.22,2346.65,310.09Z"/><path class="cls-19" d="M425.07,524.89s-8,1-8,8.33V533c-.25-7-7.93-8-7.93-8,7.2.14,7.8-6.29,7.85-7.58L417,532.6,417,517.53C417,518.71,417.72,525,425.07,524.89Z"/><path class="cls-19" d="M417.09,205.73s-8,1-8,8.33v-.27c-.25-7-7.93-8-7.93-8,7.2.14,7.8-6.3,7.85-7.59l.08,15.26L409,198.38C409.05,199.55,409.74,205.87,417.09,205.73Z"/><path class="cls-19" d="M159.61,337.54s-8,1-8,8.33c0-.09,0-.18,0-.27-.24-7-7.92-8-7.92-8,7.2.13,7.8-6.3,7.85-7.59l.07,15.25-.06-15.06C151.57,331.36,152.25,337.67,159.61,337.54Z"/><path class="cls-19" d="M755.11,107.48s-8,1-8,8.33c0-.09,0-.18,0-.27-.24-7-7.92-8-7.92-8,7.2.13,7.8-6.3,7.85-7.59l.07,15.25L747,100.13C747.06,101.3,747.75,107.61,755.11,107.48Z"/></g></g></g></svg>